<?xml version="1.0" standalone="no"?>
<!DOCTYPE svg PUBLIC "-//W3C//DTD SVG 20010904//EN"
 "http://www.w3.org/TR/2001/REC-SVG-20010904/DTD/svg10.dtd">
<svg version="1.0" xmlns="http://www.w3.org/2000/svg"
 width="500.000000pt" height="500.000000pt" viewBox="0 0 500.000000 500.000000"
 preserveAspectRatio="xMidYMid meet">

<g transform="translate(0.000000,500.000000) scale(0.100000,-0.100000)"
fill="#000000" stroke="none">
<path d="M2480 4221 c-56 -13 -82 -26 -137 -69 -71 -56 -111 -140 -118 -242
-2 -41 -7 -101 -11 -132 l-6 -57 -186 -3 c-156 -3 -190 0 -202 12 -56 54 -54
53 -198 56 -148 2 -170 -3 -216 -53 -14 -15 -28 -25 -31 -22 -3 3 -9 60 -14
127 -16 204 -28 215 -240 210 -141 -3 -151 -4 -175 -27 -14 -13 -28 -36 -31
-52 -6 -25 -11 -29 -42 -29 -29 0 -44 -9 -79 -44 -39 -39 -44 -48 -44 -90 0
-42 -2 -46 -25 -46 -34 0 -92 -61 -105 -110 -20 -74 -15 -189 9 -242 26 -53
44 -72 86 -85 25 -8 31 -16 37 -53 11 -61 52 -101 111 -107 39 -5 46 -9 51
-33 3 -15 16 -40 28 -55 21 -24 34 -28 113 -37 50 -5 132 -7 184 -3 81 5 93 4
87 -10 -21 -55 -38 -187 -33 -257 7 -100 53 -198 115 -243 22 -16 39 -34 38
-40 -2 -6 -66 -12 -155 -15 -152 -5 -153 -5 -177 -33 -23 -27 -24 -35 -24
-168 l0 -139 -62 -1 c-101 0 -219 -23 -235 -44 -9 -14 -13 -56 -13 -149 0
-153 12 -190 72 -219 l38 -19 0 -374 0 -375 26 -53 c34 -69 68 -86 174 -86 69
0 82 3 109 25 16 14 33 36 37 47 6 19 9 16 23 -22 16 -45 17 -45 76 -52 33 -4
84 -5 113 -1 43 4 57 11 74 34 l21 29 19 -30 18 -30 175 0 c173 0 176 0 200
25 14 13 25 31 25 40 0 23 18 18 26 -7 17 -59 8 -58 360 -58 l323 0 17 32 16
31 20 -32 20 -31 332 2 331 3 10 32 10 31 23 -34 22 -34 109 0 c113 0 141 9
141 46 0 16 16 19 25 4 4 -6 25 -20 48 -32 59 -31 192 -32 259 -1 65 30 132
95 157 153 21 48 21 61 17 328 -2 152 -4 284 -4 292 -1 8 1 81 4 161 5 134 4
151 -16 196 -41 96 -147 173 -236 173 l-33 0 0 67 c0 225 -34 272 -198 274
-85 1 -125 9 -130 25 -2 6 14 33 36 61 65 82 85 141 85 258 0 65 -6 120 -17
157 -9 31 -17 58 -17 60 0 2 77 5 171 6 181 2 212 9 243 54 9 12 16 33 16 45
0 20 5 23 39 23 64 0 121 61 121 130 0 24 4 30 20 30 42 0 78 29 106 86 23 47
27 68 27 138 0 69 -4 91 -24 126 -28 51 -63 79 -101 82 -27 2 -28 5 -28 56 0
50 -3 58 -39 93 -32 33 -45 39 -80 39 -35 0 -41 3 -41 21 0 12 -16 37 -35 56
l-34 34 -160 -3 c-142 -3 -161 -5 -181 -23 -39 -35 -51 -73 -62 -196 l-11
-119 -34 35 c-37 38 -87 53 -130 37 -18 -6 -37 -6 -53 0 -40 16 -150 2 -185
-24 -16 -12 -33 -26 -37 -32 -4 -7 -66 -10 -186 -8 l-180 3 -6 52 c-3 29 -9
95 -14 147 -10 114 -27 153 -93 215 -79 74 -180 106 -269 86z m146 -100 c58
-26 111 -76 124 -117 7 -20 10 -37 8 -40 -3 -2 -20 15 -38 37 -72 90 -197 113
-311 56 -29 -14 -55 -24 -57 -22 -10 9 46 65 83 84 51 27 135 27 191 2z
m-1536 -576 l-1 -425 -45 0 c-38 0 -46 4 -54 24 -13 35 -16 797 -3 819 2 4 26
7 54 7 l49 0 0 -425z m187 0 l-2 -425 -62 0 -63 0 0 425 0 425 64 0 64 0 -1
-425z m2618 -3 c0 -233 -2 -425 -5 -427 -4 -2 -32 -1 -63 2 l-57 6 0 424 0
424 63 -3 62 -3 0 -423z m180 409 c9 -29 3 -794 -7 -813 -7 -14 -21 -18 -58
-18 l-49 0 -1 425 0 425 54 0 c45 0 56 -3 61 -19z m-1741 -33 c3 -24 7 -90 10
-148 5 -115 39 -246 77 -294 24 -30 88 -66 119 -66 11 0 38 9 60 20 67 34 110
131 133 303 13 88 12 97 -2 93 -126 -34 -198 -32 -268 9 -39 23 -83 75 -83 98
0 4 17 -6 38 -22 55 -44 115 -63 209 -65 69 -1 86 2 111 21 l30 22 6 -77 c6
-61 2 -99 -15 -177 -26 -122 -55 -181 -111 -229 -50 -43 -73 -50 -134 -43 -93
10 -158 97 -202 266 -37 147 -37 143 -17 153 14 8 16 18 10 55 -7 49 2 123 15
123 5 0 11 -19 14 -42z m-1414 -268 c0 -184 -2 -211 -16 -217 -15 -5 -15 -7 0
-15 13 -7 16 -27 16 -98 l0 -90 -29 0 c-23 0 -56 18 -62 33 0 1 -3 125 -6 275
-5 311 -3 322 62 322 l35 0 0 -210z m3301 200 c18 -10 19 -24 19 -292 -1 -167
-5 -288 -11 -299 -7 -13 -21 -19 -47 -19 l-38 0 -2 300 c-2 166 0 305 3 310 8
13 51 13 76 0z m-2686 -210 l0 -65 -30 0 c-29 0 -30 1 -33 53 -3 60 10 85 42
80 19 -3 21 -10 21 -68z m103 58 c26 -26 11 -128 -19 -128 -11 0 -20 9 -23 23
-9 45 -14 106 -8 111 9 10 37 7 50 -6z m114 -5 c10 -9 18 -30 18 -47 0 -17 5
-50 10 -74 16 -67 -1 -110 -65 -170 l-54 -51 5 -68 c3 -37 16 -130 30 -205 13
-76 24 -162 24 -192 0 -74 -33 -174 -70 -213 -54 -58 -35 -69 45 -25 38 21 55
38 72 73 16 34 36 55 72 77 27 17 61 47 76 66 28 37 45 39 45 5 0 -50 -85
-155 -168 -208 -62 -39 -225 -93 -260 -85 -66 14 -103 38 -130 83 -25 43 -27
53 -27 171 0 93 6 149 22 220 13 52 30 138 38 190 9 52 22 109 31 127 13 29
62 78 70 70 6 -6 -54 -289 -87 -413 -42 -159 -45 -269 -9 -332 13 -23 37 -51
53 -61 l30 -19 46 35 c25 20 54 48 64 64 30 45 38 150 21 244 -44 239 -56 406
-31 437 6 9 30 27 52 41 53 32 61 44 76 100 15 53 10 64 -21 47 -15 -8 -25 -9
-33 -1 -14 14 -25 97 -15 115 12 21 47 20 70 -1z m1616 0 c5 -10 7 -40 4 -67
l-4 -48 -39 5 c-44 6 -44 5 -24 -54 11 -30 33 -60 73 -95 l57 -52 -2 -108 c-1
-60 -13 -185 -26 -279 -34 -232 -25 -281 58 -334 25 -16 42 -31 38 -35 -3 -3
2 -6 12 -6 31 0 82 39 100 77 25 51 16 184 -23 353 -17 74 -42 187 -56 250
-13 63 -28 124 -32 135 -13 36 52 -33 69 -73 22 -52 83 -347 102 -494 7 -57
-10 -159 -36 -210 -24 -46 -81 -78 -141 -78 -40 0 -139 34 -219 76 -98 50
-179 156 -179 233 l0 36 19 -30 c10 -16 49 -60 87 -96 38 -37 80 -81 93 -99
30 -40 78 -70 110 -70 l25 0 -26 28 c-75 82 -95 185 -65 338 16 80 33 205 40
301 l4 52 -64 66 -65 66 5 62 c8 114 33 166 79 167 10 0 21 -8 26 -17z m100
-55 c3 -62 1 -68 -17 -68 -26 0 -27 4 -36 78 l-7 64 28 -4 c28 -3 29 -4 32
-70z m100 60 c7 -7 12 -38 12 -71 0 -55 -1 -58 -22 -55 -19 2 -24 12 -31 56
-5 29 -6 60 -3 68 7 17 28 18 44 2z m-2808 -163 c0 -97 -4 -145 -11 -145 -6 0
-24 13 -40 29 -28 28 -29 33 -29 121 0 83 2 93 25 115 50 51 55 39 55 -120z
m3604 113 c12 -16 16 -47 16 -115 0 -80 -3 -96 -20 -113 -11 -11 -29 -20 -40
-20 -19 0 -20 7 -20 135 l0 135 24 0 c14 0 32 -10 40 -22z m-2964 -52 c0 -25
5 -48 10 -51 22 -13 8 -25 -30 -25 l-40 0 0 60 0 60 30 0 c29 0 30 -2 30 -44z
m844 7 c4 -21 9 -46 12 -55 5 -17 -9 -18 -195 -18 -172 0 -201 2 -201 15 0 11
12 16 43 17 l42 1 -42 4 c-42 4 -43 5 -43 39 l0 34 189 0 189 0 6 -37z m945
-18 l-2 -55 -183 0 -184 0 0 24 c0 13 3 38 6 55 l7 31 178 0 179 0 -1 -55z
m519 -2 l-3 -58 -42 -3 -41 -3 14 38 c7 21 13 48 14 61 0 18 6 22 30 22 l31 0
-3 -57z m-1548 -162 c-25 -15 -51 -35 -58 -44 -10 -11 -33 -16 -91 -16 -95 -1
-169 -26 -229 -77 l-42 -36 0 35 c0 29 11 46 63 101 l62 66 170 0 170 0 -45
-29z m1070 -16 c17 -25 42 -53 56 -61 18 -13 24 -25 24 -55 l0 -38 -23 23
c-12 12 -45 36 -71 51 -41 24 -63 29 -135 33 -47 3 -88 8 -91 12 -3 4 -29 23
-59 43 l-53 37 160 0 161 0 31 -45z m-910 -4 c0 -24 -95 -81 -135 -81 -40 0
-27 20 41 62 67 42 94 47 94 19z m534 -24 c33 -18 62 -39 64 -45 10 -31 -115
4 -160 45 -49 45 16 44 96 0z m-622 -123 c139 -29 169 -41 226 -89 36 -31 61
-79 48 -93 -3 -2 -21 9 -41 27 -87 76 -234 121 -399 121 -124 0 -188 -19 -251
-76 -23 -20 -31 -32 -20 -28 11 4 49 9 85 11 l65 4 -64 -35 c-35 -19 -72 -43
-82 -52 -25 -22 -31 -15 -35 40 -6 85 41 145 143 182 61 21 189 17 325 -12z
m944 2 c53 -25 114 -88 114 -118 0 -25 -10 -23 -52 12 -69 57 -112 70 -233 70
-166 0 -293 -38 -383 -116 -68 -58 -87 -22 -25 47 49 54 72 64 215 98 164 39
290 42 364 7z m74 -137 c36 -11 40 -15 40 -44 0 -17 -3 -34 -6 -37 -3 -4 -30
11 -61 32 -30 21 -68 42 -84 45 -16 4 -29 11 -29 17 0 13 79 5 140 -13z
m-1167 -255 c43 -49 139 -102 200 -110 47 -7 133 9 180 33 15 7 27 10 27 5 0
-13 -52 -58 -90 -78 -49 -25 -151 -24 -210 3 -73 33 -136 96 -159 159 -12 30
-21 67 -21 82 0 25 2 24 19 -13 10 -22 35 -58 54 -81z m942 19 c-13 -43 -28
-68 -58 -96 -47 -43 -127 -84 -184 -93 -61 -9 -143 18 -187 63 -19 20 -34 38
-32 40 1 2 25 -7 52 -19 72 -33 171 -31 245 3 72 34 131 87 154 140 25 55 31
34 10 -38z m-951 -212 c14 -14 26 -30 26 -37 0 -7 6 -17 13 -21 11 -6 67 -115
67 -129 0 -2 -11 -4 -24 -4 -19 0 -31 12 -57 58 -58 104 -80 153 -85 190 l-5
37 20 -35 c10 -19 31 -46 45 -59z m957 -13 c-28 -85 -87 -178 -112 -178 -18 0
-18 2 2 56 25 66 69 145 69 124 0 -8 12 4 26 28 14 24 28 41 31 38 3 -2 -4
-33 -16 -68z m-1070 -50 c13 -29 34 -67 47 -86 13 -19 21 -36 19 -39 -10 -9
-427 -13 -427 -4 0 5 24 17 53 26 71 24 195 89 237 125 19 16 38 29 41 30 3 0
16 -23 30 -52z m1254 -9 c22 -14 86 -45 143 -69 56 -24 102 -47 102 -51 0 -4
-95 -7 -210 -7 -116 0 -209 4 -208 7 92 183 91 182 113 163 11 -10 38 -29 60
-43z m-631 32 c37 -41 153 -64 199 -39 21 10 21 10 7 -7 -48 -58 -154 -52
-210 11 -30 34 -38 54 -22 54 5 0 17 -9 26 -19z m-74 1 c0 -16 -66 -70 -99
-81 -43 -14 -106 1 -121 29 -12 23 -8 24 40 10 39 -11 130 11 151 36 13 15 29
19 29 6z m1083 -374 l45 -96 -24 -5 c-17 -3 -28 1 -35 14 -12 23 -93 27 -106
6 -10 -17 -41 -29 -48 -18 -6 10 46 140 76 188 28 44 34 38 92 -89z m-2326 67
l48 -45 39 45 c59 70 66 63 66 -66 0 -109 0 -110 -22 -107 -20 3 -24 10 -28
58 l-5 55 -24 -33 -25 -32 -33 32 -33 32 0 -57 c0 -54 -1 -57 -25 -57 l-25 0
0 110 c0 62 4 110 9 110 6 0 31 -20 58 -45z m289 4 l26 -42 27 41 c20 33 32
42 54 42 l29 0 -23 -37 c-12 -21 -33 -52 -46 -70 -19 -26 -22 -39 -17 -73 6
-38 5 -40 -20 -40 -24 0 -26 3 -26 44 0 35 -8 57 -40 105 -22 33 -40 62 -40
66 0 3 11 5 25 5 18 0 32 -11 51 -41z m413 26 c36 -18 57 -65 42 -94 -17 -31
-52 -51 -88 -51 -30 0 -33 -3 -33 -30 0 -25 -4 -30 -25 -30 l-25 0 0 110 0
110 50 0 c28 0 64 -7 79 -15z m271 -10 c0 -23 -3 -25 -50 -25 -43 0 -50 -3
-50 -20 0 -17 7 -20 40 -20 33 0 40 -3 40 -20 0 -17 -7 -20 -40 -20 -33 0 -40
-3 -40 -20 0 -18 7 -20 55 -20 52 0 55 -1 55 -25 0 -25 -1 -25 -79 -25 l-79 0
-7 95 c-4 52 -5 101 -1 110 4 12 22 15 81 15 73 0 75 -1 75 -25z m246 -9 c29
-33 30 -65 4 -99 -20 -25 -20 -25 1 -51 11 -14 19 -26 17 -27 -43 -11 -54 -7
-66 21 -18 41 -59 43 -64 3 -2 -20 -9 -29 -25 -31 -23 -3 -23 -2 -23 108 l0
112 66 -4 c58 -4 70 -8 90 -32z m238 23 c24 -11 24 -13 9 -36 -11 -17 -19 -21
-26 -14 -14 14 -77 14 -77 1 0 -5 12 -13 28 -16 15 -4 44 -15 65 -26 30 -15
37 -24 37 -47 0 -61 -92 -93 -152 -53 -23 15 -25 19 -13 35 11 15 17 16 34 8
29 -16 71 -14 71 4 0 8 -17 19 -42 25 -42 11 -77 42 -78 68 0 7 11 24 25 37
27 28 76 33 119 14z m256 -4 c70 -36 88 -126 35 -175 -31 -29 -108 -32 -148
-5 -58 38 -56 119 5 170 34 28 66 32 108 10z m242 -37 c26 -29 48 -56 48 -60
0 -4 6 -8 13 -8 8 0 11 17 9 60 -4 59 -3 60 22 60 l26 0 0 -105 c0 -102 -1
-105 -22 -105 -14 0 -41 19 -70 50 -26 28 -50 50 -53 50 -3 0 -5 -25 -5 -55 0
-52 -1 -55 -25 -55 -25 0 -25 1 -25 79 0 43 -3 93 -6 110 -6 28 -4 31 17 31
15 0 40 -18 71 -52z m528 -27 c0 -87 3 -91 78 -91 27 0 32 -4 32 -22 0 -22 -4
-23 -80 -25 l-80 -1 0 109 0 109 25 0 c25 0 25 -1 25 -79z m-2482 -344 l3 -67
-65 0 -66 0 0 -480 0 -481 -67 3 -68 3 -3 478 -2 477 -55 0 -55 0 0 65 0 64
93 4 c50 1 135 2 187 2 l95 -1 3 -67z m380 45 c78 -41 82 -57 82 -297 0 -195
-2 -212 -21 -244 -11 -19 -29 -41 -39 -50 -18 -15 -17 -20 10 -141 15 -69 35
-163 44 -210 9 -47 19 -95 22 -107 6 -22 4 -23 -64 -23 -87 0 -85 -2 -106 143
-19 124 -55 288 -66 300 -4 5 -18 6 -29 2 -21 -6 -22 -11 -21 -208 0 -111 1
-210 0 -220 0 -16 -8 -18 -67 -15 l-68 3 0 235 c1 129 2 376 3 549 l2 313 138
-4 c117 -3 143 -7 180 -26z m456 -57 c4 -33 18 -139 31 -235 13 -96 31 -236
40 -310 14 -118 45 -342 60 -437 l6 -31 -71 1 c-80 2 -72 -9 -90 121 -6 44
-11 81 -13 82 -4 4 -51 6 -93 5 l-42 -1 -7 -82 c-11 -127 -12 -128 -90 -128
l-66 0 5 33 c3 17 7 52 10 77 13 115 51 376 87 595 21 132 42 272 46 310 l8
70 80 5 c48 3 83 1 86 -5 4 -5 10 -37 13 -70z m310 -456 c4 -298 6 -543 4
-544 -2 -1 -33 -5 -70 -7 l-68 -4 0 543 0 542 58 4 c31 2 60 4 63 5 3 1 9
-242 13 -539z m226 519 c9 -22 22 -70 121 -448 l38 -145 0 302 1 301 58 4 c31
2 60 3 65 1 6 -4 11 -1082 5 -1084 -2 0 -31 -2 -64 -5 l-62 -6 -10 34 c-32
100 -107 402 -141 568 -6 31 -9 -51 -10 -271 l-1 -316 -46 -7 c-94 -12 -84
-77 -84 538 l0 545 53 4 c28 2 55 4 60 5 4 1 12 -8 17 -20z m752 -44 c10 -32
29 -111 43 -174 14 -63 41 -169 60 -235 l34 -120 0 293 c1 226 4 292 14 293 6
0 36 2 65 5 l52 4 0 -544 0 -544 -62 -5 c-35 -2 -66 -1 -70 2 -11 9 -91 341
-121 496 l-25 130 -1 -311 -1 -312 -62 -4 c-35 -3 -66 -3 -70 -1 -5 2 -8 247
-8 543 l0 539 58 4 c31 1 61 2 67 2 5 -1 17 -28 27 -61z m687 32 c56 -39 71
-84 71 -206 l0 -100 -70 0 -69 0 -3 98 -3 97 -57 3 c-54 3 -58 2 -64 -23 -3
-14 -2 -193 2 -398 l9 -372 26 -12 c20 -10 34 -10 58 -2 l31 11 0 144 0 145
-30 6 c-30 5 -30 6 -30 69 l0 64 101 0 101 0 -4 -232 c-3 -233 -3 -233 -30
-279 -17 -29 -41 -53 -62 -63 -121 -57 -281 -1 -301 106 -3 18 -5 223 -3 455
3 478 -1 453 89 501 38 21 54 23 121 20 64 -4 84 -9 117 -32z m-927 -506 c0
-291 1 -535 2 -541 1 -6 -28 -12 -66 -14 l-68 -4 0 545 0 544 65 0 65 0 2
-530z"/>
<path d="M3512 2255 c-11 -23 -10 -25 13 -25 26 0 29 7 19 34 -9 23 -19 20
-32 -9z"/>
<path d="M1897 2313 c-4 -3 -7 -17 -7 -29 0 -37 60 -44 74 -9 10 28 -46 60
-67 38z"/>
<path d="M2380 2290 c0 -28 3 -30 35 -30 23 0 38 6 41 15 9 23 -15 45 -47 45
-26 0 -29 -4 -29 -30z"/>
<path d="M2902 2304 c-41 -28 -18 -104 32 -104 36 0 56 20 56 55 0 33 -27 65
-55 65 -6 0 -21 -7 -33 -16z"/>
<path d="M1460 1690 l0 -190 39 0 c22 0 51 4 66 10 l25 10 -2 177 -3 178 -62
3 -63 3 0 -191z"/>
<path d="M1992 1625 c-7 -71 -18 -171 -23 -222 -13 -132 -16 -123 36 -123 33
0 45 4 45 15 0 13 -36 387 -43 440 -1 11 -8 -38 -15 -110z"/>
</g>
</svg>
